# xmcd
#
# Track frame offsets:
# 150
# 18881
# 51170
# 76275
# 91921
# 129026
# 153076
# 185264
# 208647
# 229761
#
# Disc length: 3394 seconds
#
# Revision: 1
# Processed by: cddbd v1.5.2PL0 Copyright (c) Steve Scherf et al.
# Submitted via: CedeCatalogueitor 2.6.0.6 http://personales.ya.com/cdcatalogueitor
#
DISCID=690d400a
DTITLE=Peter Borderick - Itstartshear.com
DYEAR=1900
DGENRE=
TTITLE0=A Am Piano
TTITLE1=A Tribute To Our Letter Writing Days
TTITLE2=Blue
TTITLE3=It Stars Hear
TTITLE4=Asleep
TTITLE5=Colin
TTITLE6=Words
TTITLE7=With The Notes On Fire
TTITLE8=Tresspassing
TTITLE9=Everything I Know
EXTD=
EXTT0=
EXTT1=
EXTT2=
EXTT3=
EXTT4=
EXTT5=
EXTT6=
EXTT7=
EXTT8=
EXTT9=
PLAYORDER=
